<mxfile host="app.diagrams.net" modified="2024-06-21T17:10:13.884Z" agent="Mozilla/5.0 (iPhone; CPU iPhone OS 17_5 like Mac OS X) AppleWebKit/605.1.15 (KHTML, like Gecko) CriOS/126.0.6478.54 Mobile/15E148 Safari/604.1" version="24.6.1" etag="c8_zLlTn6y7kjOkOCh7M" type="github">
  <diagram name="Page-1" id="9s1uMs-VNAmVOXNsM-ho">
    <mxGraphModel>
      <root>
        <mxCell id="0" />
        <mxCell id="1" parent="0" />
      </root>
    </mxGraphModel>
  </diagram>
</mxfile>
